fd_9_states
version=1
nRows=15
nColumns=17
inDegrees=yes

# SIMM Motion File Header:
name fd_9_states
datacolumns 17
datarows 15
otherdata 1
range 0.296390 0.303243
endheader
time	/jointset/r_shoulder/r_shoulder_elev/value	/jointset/r_shoulder/r_shoulder_elev/speed	/jointset/r_elbow/r_elbow_flex/value	/jointset/r_elbow/r_elbow_flex/speed	/forceset/TRIlong/activation	/forceset/TRIlong/fiber_length	/forceset/TRIlat/activation	/forceset/TRIlat/fiber_length	/forceset/TRImed/activation	/forceset/TRImed/fiber_length	/forceset/BIClong/activation	/forceset/BIClong/fiber_length	/forceset/BICshort/activation	/forceset/BICshort/fiber_length	/forceset/BRA/activation	/forceset/BRA/fiber_length
      0.296390	      0.028120	      0.142945	    113.631675	    307.698778	      0.024164	      0.177410	      0.208790	      0.110972	      0.207360	      0.106020	      0.983162	      0.075611	      0.571777	      0.075593	      0.029857	      0.059056
      0.296921	      0.028196	      0.142407	    113.794849	    307.556731	      0.024204	      0.177473	      0.209571	      0.111025	      0.208138	      0.106074	      0.983608	      0.075474	      0.579248	      0.075428	      0.029786	      0.058988
      0.297451	      0.028271	      0.143583	    113.957952	    307.429556	      0.024241	      0.177517	      0.210301	      0.111079	      0.208865	      0.106127	      0.984042	      0.075338	      0.586378	      0.075265	      0.029715	      0.058920
      0.297982	      0.028347	      0.139916	    114.120989	    307.308319	      0.024273	      0.177580	      0.210985	      0.111132	      0.209546	      0.106181	      0.984465	      0.075202	      0.593187	      0.075103	      0.029645	      0.058853
      0.298512	      0.028420	      0.137993	    114.283966	    307.202863	      0.024303	      0.177624	      0.211625	      0.111186	      0.210183	      0.106234	      0.984876	      0.075067	      0.599694	      0.074942	      0.029576	      0.058785
      0.299043	      0.028492	      0.131053	    114.446889	    307.103571	      0.024330	      0.177687	      0.212225	      0.111240	      0.210779	      0.106288	      0.985277	      0.074931	      0.605916	      0.074782	      0.029507	      0.058717
      0.299573	      0.028560	      0.125966	    114.609763	    307.020251	      0.024354	      0.177731	      0.212786	      0.111293	      0.211337	      0.106342	      0.985666	      0.074796	      0.611870	      0.074623	      0.029439	      0.058649
      0.299931	      0.028604	      0.119562	    114.719580	    306.967219	      0.024370	      0.177769	      0.213144	      0.111330	      0.211693	      0.106378	      0.985923	      0.074705	      0.615741	      0.074516	      0.029393	      0.058604
      0.300079	      0.028622	      0.116862	    114.765089	    306.946909	      0.024369	      0.177784	      0.213324	      0.111345	      0.211874	      0.106393	      0.986028	      0.074668	      0.617139	      0.074472	      0.029374	      0.058585
      0.300227	      0.028639	      0.114002	    114.810595	    306.927351	      0.024361	      0.177799	      0.213648	      0.111360	      0.212203	      0.106409	      0.986132	      0.074630	      0.617825	      0.074428	      0.029355	      0.058566
      0.300474	      0.028666	      0.109029	    114.886244	    306.896044	      0.024346	      0.177824	      0.214175	      0.111385	      0.212741	      0.106433	      0.986304	      0.074567	      0.618937	      0.074356	      0.029324	      0.058534
      0.301706	      0.028785	      0.083702	    115.264375	    306.744222	      0.024275	      0.177947	      0.216581	      0.111508	      0.215191	      0.106556	      0.987130	      0.074255	      0.624204	      0.074000	      0.029169	      0.058377
      0.302179	      0.028822	      0.073745	    115.409372	    306.681974	      0.024248	      0.177999	      0.217410	      0.111555	      0.216035	      0.106603	      0.987434	      0.074135	      0.626100	      0.073866	      0.029110	      0.058317
      0.302760	      0.028862	      0.064501	    115.587490	    306.604001	      0.024215	      0.178053	      0.218364	      0.111612	      0.217007	      0.106661	      0.987797	      0.073989	      0.628341	      0.073704	      0.029039	      0.058243
      0.303243	      0.028891	      0.054854	    115.735646	    306.530851	      0.024188	      0.178113	      0.219107	      0.111661	      0.217763	      0.106710	      0.988091	      0.073867	      0.630135	      0.073570	      0.028979	      0.058182
